# xmcd
#
# Track frame offsets: 
#        150
#        12676
#        25321
#        38168
#        50425
#        63625
#        75016
#        87802
#        101092
#        115578
#        126769
#        141135
#        153808
#        169229
#
# Disc length: 2443 seconds
#
# Revision: 0
# Processed by: cddbd v1.5.2PL0 Copyright (c) Steve Scherf et al.
# Submitted via: ExactAudioCopy v0.99pb5
#
DISCID=ab09890e
DTITLE=John Lee Hooker - Specialty Profiles
DYEAR=2006
DGENRE=Blues
TTITLE0=Boogie Chillen #2
TTITLE1=I'm Mad
TTITLE2=Everybody's Blues
TTITLE3=Burnin' Hell
TTITLE4=Do My Baby Think Of Me
TTITLE5=Goin' Down Highway 51
TTITLE6=My Baby's Got Something
TTITLE7=I Need Lovin'
TTITLE8=Grinder Man
TTITLE9=No More Doggin' (aka No More Foolin')
TTITLE10=I Need Love So Bad
TTITLE11=Huckle Up Baby
TTITLE12=Nothin' But Trouble (Don't Take Your Wife's Family In)
TTITLE13=Odds Against Me (ala Backbiters and Syndicators)
EXTD=
EXTT0=
EXTT1=
EXTT2=
EXTT3=
EXTT4=
EXTT5=
EXTT6=
EXTT7=
EXTT8=
EXTT9=
EXTT10=
EXTT11=
EXTT12=
EXTT13=
PLAYORDER=
